# xmcd
#
# Track frame offsets: 
#        150
#        16013
#        28879
#        53032
#        66957
#        82087
#        93667
#        118541
#        142383
#        165302
#        182051
#        203254
#        221395
#        249526
#        268864
#        287604
#        304638
#
# Disc length: 4365 seconds
#
# Revision: 0
# Processed by: cddbd v1.5.2PL0 Copyright (c) Steve Scherf et al.
# Submitted via: ExactAudioCopy v0.95b4
#
DISCID=f0110b11
DTITLE=Free - Free And Last and Heartbreaker
DYEAR=1972
DGENRE=Rock
TTITLE0=Catch The Train
TTITLE1=Soldier Boy
TTITLE2=Magic Ship
TTITLE3=Sail On
TTITLE4=Travelling Man
TTITLE5=Little Bit Of Love
TTITLE6=Guardian Of The Universe
TTITLE7=Child
TTITLE8=Goodbye
TTITLE9=Wishing Well
TTITLE10=Come Together In The Morning
TTITLE11=Travelling In Style
TTITLE12=Heartbreaker
TTITLE13=Muddy Water
TTITLE14=Common Mortal Man
TTITLE15=Easy On My Soul
TTITLE16=Seven Angels
EXTD=
EXTT0=
EXTT1=
EXTT2=
EXTT3=
EXTT4=
EXTT5=
EXTT6=
EXTT7=
EXTT8=
EXTT9=
EXTT10=
EXTT11=
EXTT12=
EXTT13=
EXTT14=
EXTT15=
EXTT16=
PLAYORDER=
